# xmcd
# 
# Track frame offsets:
#     150
#     16071
#     27389
#     41925
#     53588
#     63396
#     74460
#     85432
#     97897
#     109863
#     125932
#     143199
#     154740
#     166875
#     180871
#     194201
#     205818
#     216615
#     229710
#     241210
# 
# Disc length: 3437
# 
# Revision: 1
# Processed by: cddbd v1.5.2PL0 Copyright (c) Steve Scherf et al.
# Submitted via: fre:ac v1.0.27
# 
DISCID=240d6b14
DTITLE=Various Artist - New Orleans - The Intro Collection - CD2: Yes We Can - Soulfully
DYEAR=2009
DGENRE=Jazz
TTITLE0=Lee Dorsey - Yes we can
TTITLE1=Eddie Bo and Inez Cheatham - Lover and a friend
TTITLE2=The Meters - Look-ka py-py
TTITLE3=Robert Parker - Barefootin'
TTITLE4=Benny Spellman - Fortune teller
TTITLE5=Fats Domino - The fat man
TTITLE6=Alvin Robinson - Let the good times roll
TTITLE7=Lee Dorsey - Working in a coal mine
TTITLE8=Joe Haywood - Sadie mae
TTITLE9=Allen Toussaint - What is success
TTITLE10=Aaron Neville - Make me strong
TTITLE11=Curley Moore - Get low down (part2)
TTITLE12=Chris Kenner - Fumigate funky broadway
TTITLE13=Dr John - Loser for you baby
TTITLE14=Roger and The Gypsies - Pass the hatchet
TTITLE15=Art Neville - House on the hill
TTITLE16=Fats Domino - I'm walking to New Orleans (live)
TTITLE17=The Meters - Handclappin' song
TTITLE18=Danny White - Natural soul brother
TTITLE19=Aaron Neville - Cry me a river
EXTD=
EXTT0=
EXTT1=
EXTT2=
EXTT3=
EXTT4=
EXTT5=
EXTT6=
EXTT7=
EXTT8=
EXTT9=
EXTT10=
EXTT11=
EXTT12=
EXTT13=
EXTT14=
EXTT15=
EXTT16=
EXTT17=
EXTT18=
EXTT19=
PLAYORDER=
